<?xml version="1.0" encoding="UTF-8" standalone="no"?>
<svg
   xmlns="http://www.w3.org/2000/svg"
   version="1.0"
   width="800"
   height="57">
  <g fill="black">
    <path d="M 0,0 0,57 58,57 58,0 29,14 z" />
    <path d="M 60,57 93,57 93,0 60,0 z" />
    <path d="m 95,50 7,7 45,0 0,-28 -16,0 0,-1 16,0 0,-28 -45,0 -7,7 z" />
    <path d="m 149,57 28,0 0,-14 1,0 0,14 28,0 0,-57 -28,0 0,14 -1,0 0,-14 -28,0 z" />
    <path d="m 243,57 22,0 0,-57 -44,0 -13,29 0,28 22,0 6,-6 0,-13 1,0 0,13 z" />
    <path d="m 315,0 -48,0 0,57 48,0 0,-18 -17,0 0,-1 17,0 0,-17 -17,0 0,-1 17,0 z" />
    <path d="m 362,57 0,-28 -12,0 0,-29 -33,0 0,57 z" />
  </g>
  <g fill="red">
    <path d="m 364,50 7,7 45,0 0,-24 -6,-6 -13,0 -6,6 -1,-1 6,-6 19,0 0,-26 -44,0 -7,7 z" />
    <path d="m 418,0 0,57 52,0 -8,-22 7,-7 0,-21 -7,-7 z" />
    <path d="m 516,0 -38,0 -7,7 0,43 7,7 38,0 7,-6 0,-44 z" />
    <path d="m 560,0 -6,6 0,14 -1,0 0,-14 -6,-6 -22,0 0,50 7,7 44,0 7,-7 0,-50 z" />
    <path d="m 633,0 -48,0 0,57 28,0 0,-15 12,0 0,-21 -13,0 0,-1 21,0 z" />
    <path d="m 642,0 -7,7 0,22 7,7 -7,0 0,21 44,0 7,-7 0,-22 -7,-7 7,0 0,-21 z" />
    <path d="m 688,0 0,57 52,0 -13,-29 13,-28 z" />
    <path d="m 800,0 -59,0 13,28 0,29 32,0 0,-29 z" />
  </g>
</svg>
